<?xml version="1.0" encoding="UTF-8" standalone="no"?>
<!-- Created with Inkscape (http://www.inkscape.org/) -->

<svg
   xmlns:dc="http://purl.org/dc/elements/1.1/"
   xmlns:cc="http://creativecommons.org/ns#"
   xmlns:rdf="http://www.w3.org/1999/02/22-rdf-syntax-ns#"
   xmlns:svg="http://www.w3.org/2000/svg"
   xmlns="http://www.w3.org/2000/svg"
   xmlns:xlink="http://www.w3.org/1999/xlink"
   xmlns:sodipodi="http://sodipodi.sourceforge.net/DTD/sodipodi-0.dtd"
   xmlns:inkscape="http://www.inkscape.org/namespaces/inkscape"
   id="svg2"
   version="1.1"
   inkscape:version="0.91 r13725"
   width="900"
   height="650"
   viewBox="0 0 900 650"
   sodipodi:docname="controls.svg">
  <metadata
     id="metadata8">
    <rdf:RDF>
      <cc:Work
         rdf:about="">
        <dc:format>image/svg+xml</dc:format>
        <dc:type
           rdf:resource="http://purl.org/dc/dcmitype/StillImage" />
        <dc:title></dc:title>
      </cc:Work>
    </rdf:RDF>
  </metadata>
  <defs
     id="defs6" />
  <sodipodi:namedview
     pagecolor="#ffffff"
     bordercolor="#666666"
     borderopacity="1"
     objecttolerance="10"
     gridtolerance="10"
     guidetolerance="10"
     inkscape:pageopacity="0"
     inkscape:pageshadow="2"
     inkscape:window-width="960"
     inkscape:window-height="1007"
     id="namedview4"
     showgrid="false"
     inkscape:zoom="0.36307692"
     inkscape:cx="366.4805"
     inkscape:cy="2.8256474"
     inkscape:window-x="0"
     inkscape:window-y="27"
     inkscape:window-maximized="0"
     inkscape:current-layer="svg2" />
  <image
     sodipodi:absref="/home/kyle/projects/kgullion.github.io/img/portfolio/cabin.png"
     xlink:href="cabin.png"
     y="0"
     x="0"
     id="image10"
     preserveAspectRatio="none"
     height="650"
     width="900" />
  <g
     id="g4225"
     transform="matrix(1.0057057,0,0,1.0057057,192.53934,67.539341)">
    <circle
       id="circle4139"
       r="256"
       cy="256"
       cx="256"
       style="fill:#45b39c;fill-opacity:1" />
    <use
       x="0"
       y="0"
       xlink:href="#g4271"
       id="use4291"
       transform="translate(108.20847,0)"
       width="100%"
       height="100%" />
    <g
       id="g4271">
      <path
         id="path4143"
         d="m 159,396.843 c 0,10.497 -6.214,19.009 -14.001,19.009 l 0,0 C 137.213,415.852 131,407.34 131,396.843 l 0,-281.684 c 0,-10.498 6.213,-19.01 13.999,-19.01 l 0,0 c 7.786,0 14.001,8.512 14.001,19.01 l 0,281.684 z"
         style="fill:#134435;fill-opacity:1"
         inkscape:connector-curvature="0" />
      <path
         inkscape:connector-curvature="0"
         style="fill:#216854;fill-opacity:1"
         d="m 156.654,396.843 c -0.186,6.216 -2.458,13.463 -8.792,15.934 -7.022,2.739 -11.981,-5.014 -13.551,-10.621 -0.687,-2.455 -0.625,-5 -0.625,-7.519 0,-6.499 0,-12.999 0,-19.498 0,-26.713 0,-53.427 0,-80.14 0,-56.181 0,-112.362 0,-168.543 0,-3.764 0,-7.528 0,-11.292 0,-5.865 2.194,-12.017 7.316,-15.262 6.64,-4.206 12.666,2.898 14.637,8.553 0.985,2.826 1.015,5.777 1.015,8.718 0,17.982 0,35.965 0,53.947 0,61.495 0,122.991 0,184.486 0,13.746 0,27.491 0,41.237 0,3.374 5.232,3.374 5.232,0 0,-43.122 0,-86.244 0,-129.366 0,-49.97 0,-99.94 0,-149.91 0,-10.775 -4.795,-24.684 -17.873,-23.971 -12.019,0.655 -15.56,14.588 -15.56,24.399 0,18.807 0,37.614 0,56.421 0,61.359 0,122.717 0,184.076 0,11.982 0,23.963 0,35.945 0,6.834 1.293,13.198 5.69,18.69 4.4,5.496 11.773,6.574 17.834,3.491 7.014,-3.568 9.691,-12.536 9.908,-19.774 0.103,-3.377 -5.13,-3.367 -5.231,-10e-4 z"
         id="path4147" />
    </g>
    <path
       id="path4149"
       d="M 176,339.595 C 176,348.103 169.102,355 160.595,355 l -30.189,0 c -8.508,0 -15.405,-6.897 -15.405,-15.405 l 0,-63.189 c 0,-8.508 6.897,-15.405 15.405,-15.405 l 30.189,0 c 8.508,0 15.405,6.898 15.405,15.405 l 0,63.189 z"
       style="fill:#e2e6e6"
       inkscape:connector-curvature="0" />
    <rect
       id="rect4151"
       height="7"
       width="61"
       style="fill:#fbffff"
       y="285"
       x="115" />
    <rect
       id="rect4153"
       height="8"
       width="61"
       style="fill:#fbffff"
       y="304"
       x="115" />
    <rect
       id="rect4155"
       height="10"
       width="61"
       style="fill:#fbffff"
       y="321"
       x="115" />
    <use
       x="0"
       y="0"
       xlink:href="#g4271"
       id="use4297"
       transform="translate(222.31699,3.8729816)"
       width="100%"
       height="100%" />
    <path
       id="path4173"
       d="m 398,243.596 c 0,8.508 -6.897,15.405 -15.404,15.405 l -30.191,0 c -8.508,0 -15.404,-6.897 -15.404,-15.405 l 0,-63.19 c 0,-8.508 6.897,-15.405 15.404,-15.405 l 30.191,0 c 8.508,0 15.404,6.897 15.404,15.405 l 0,63.19 z"
       style="fill:#e2e6e6"
       inkscape:connector-curvature="0" />
    <rect
       id="rect4175"
       height="9"
       width="61"
       style="fill:#fbffff"
       y="189.00101"
       x="337" />
    <rect
       id="rect4177"
       height="6"
       width="61"
       style="fill:#fbffff"
       y="210.00101"
       x="337" />
    <rect
       id="rect4179"
       height="10"
       width="61"
       style="fill:#fbffff"
       y="227.00101"
       x="337" />
    <path
       id="path4181"
       d="M 283,248.595 C 283,257.103 276.103,264 267.595,264 l -30.189,0 c -8.508,0 -15.405,-6.897 -15.405,-15.405 l 0,-63.189 c 0,-8.508 6.898,-15.405 15.405,-15.405 l 30.189,0 c 8.508,0 15.405,6.897 15.405,15.405 l 0,63.189 z"
       style="fill:#e2e6e6"
       inkscape:connector-curvature="0" />
    <rect
       id="rect4183"
       height="7"
       width="61"
       style="fill:#fbffff"
       y="194.00101"
       x="222" />
    <rect
       id="rect4185"
       height="8"
       width="61"
       style="fill:#fbffff"
       y="213.00101"
       x="222" />
    <rect
       id="rect4187"
       height="10"
       width="61"
       style="fill:#fbffff"
       y="230.00101"
       x="222" />
    <g
       id="g4189" />
    <g
       id="g4191" />
    <g
       id="g4193" />
    <g
       id="g4195" />
    <g
       id="g4197" />
    <g
       id="g4199" />
    <g
       id="g4201" />
    <g
       id="g4203" />
    <g
       id="g4205" />
    <g
       id="g4207" />
    <g
       id="g4209" />
    <g
       id="g4211" />
    <g
       id="g4213" />
    <g
       id="g4215" />
    <g
       id="g4217" />
  </g>
</svg>
